<?xml version="1.0" encoding="utf-8"?>
<!-- Generator: Adobe Illustrator 23.1.0, SVG Export Plug-In . SVG Version: 6.00 Build 0)  -->
<svg version="1.1" id="mupsy_logo" xmlns="http://www.w3.org/2000/svg" xmlns:xlink="http://www.w3.org/1999/xlink" x="0px" y="0px"
	 viewBox="0 0 256 256" xml:space="preserve">
<style type="text/css">
.st0{
    fill:#00BEFC;
    stroke: #00BEFC;
    stroke-width: 1;
}
</style>
<g class="st0">
    <path d="M24,36a4 4 0 0 0 8 0v16a4 4 0 0 0 -8 0v-16z"/>
    <g>
        <circle cx="16" cy="34" r="8"/>
        <circle cx="16" cy="66" r="8"/>
        <rect x="8" y="34" width="16" height="32" />
    </g>
    <g>
        <circle cx="40" cy="25" r="8"/>
        <circle cx="40" cy="89" r="8"/>
        <rect x="32" y="25" width="16" height="64" />
    </g>
</g>
<g class="st0">
    <path d="M96,48a4 4 0 0 0 8 0v16a4 4 0 0 0 -8 0v-16z"/>
    <g>
        <circle cx="88" cy="25" r="8"/>
        <circle cx="88" cy="89" r="8"/>
        <rect x="80" y="25" width="16" height="64" />
    </g>
    <g>
        <circle cx="112" cy="34" r="8"/>
        <circle cx="112" cy="66" r="8"/>
        <rect x="104" y="34" width="16" height="32" />
    </g>
</g>
<g class="st0">
    <circle cx="64" cy="60" r="8"/>
    <circle cx="64" cy="108" r="8"/>
    <rect x="56" y="60" width="16" height="48" />
</g>
</svg>
